<svg version="1.1" id="Layer_1" xmlns="http://www.w3.org/2000/svg" xmlns:xlink="http://www.w3.org/1999/xlink" x="0px" y="0px"
	 width="100%" viewBox="0 0 64 64" enable-background="new 0 0 64 64" xml:space="preserve">
<path fill="#FFFEFE" opacity="1.000000" stroke="none" 
	d="
M1.000000,42.000000 
	C1.000000,28.373314 1.000000,14.746628 1.000000,1.059971 
	C22.230808,1.059971 43.461819,1.059971 65.000000,1.059971 
	C65.000000,15.686133 65.000000,30.374409 64.575417,45.531364 
	C62.735592,46.016090 61.320347,46.032131 59.643181,46.162338 
	C58.919865,46.825512 58.458469,47.374523 57.940800,47.601250 
	C56.544594,46.144226 55.204662,45.009483 53.321033,43.414299 
	C53.197582,45.542007 53.097988,47.258446 52.711266,49.101658 
	C51.613220,49.834965 50.802307,50.441498 49.577435,51.045105 
	C47.789135,50.968517 46.414803,50.894855 45.017815,50.578259 
	C44.995159,50.335323 44.930340,49.848682 45.055172,49.585426 
	C44.792229,48.244667 44.404449,47.167168 44.373329,46.032211 
	C45.062336,45.687050 45.394688,45.399342 45.727036,45.111633 
	C44.833530,44.924664 43.940022,44.737690 42.937592,44.246567 
	C41.506382,42.299149 40.184097,40.655884 39.053337,38.719841 
	C39.502728,36.940880 39.760597,35.454689 40.224369,33.671150 
	C40.603825,31.955076 40.777374,30.536348 40.965988,28.684498 
	C40.977150,26.808872 40.973251,25.366369 40.988739,23.498146 
	C40.375038,20.365484 39.741947,17.658537 38.953484,14.649731 
	C36.644039,12.149111 34.590904,9.834844 32.280064,7.815482 
	C31.492308,7.127092 30.056528,7.180262 28.631500,7.041266 
	C27.689180,8.210440 27.032207,9.232944 26.323154,10.498709 
	C26.243587,11.074690 26.259729,11.405280 26.200653,12.053185 
	C26.273922,13.454897 26.466038,14.537162 26.357132,15.776463 
	C25.472443,17.270700 24.888775,18.607903 24.037086,20.053461 
	C23.974689,20.805538 24.180311,21.449259 24.458027,22.424385 
	C24.917774,23.294207 25.305429,23.832624 25.711729,24.443211 
	C25.730371,24.515379 25.753254,24.662685 25.740282,24.736967 
	C25.727310,24.811249 25.858265,24.886047 25.579136,25.027828 
	C25.183380,25.782181 25.066753,26.394751 24.839081,26.999998 
	C24.728037,26.992674 24.509192,26.952101 24.113808,26.856165 
	C21.568588,26.881941 18.971956,26.669138 21.171066,30.377903 
	C21.109575,31.731192 21.103601,32.795040 21.066875,34.261612 
	C21.047569,35.469296 21.059010,36.274254 21.053900,37.409988 
	C21.373337,38.474621 21.709328,39.208469 22.260773,40.049965 
	C22.758663,40.338139 22.953438,40.587219 23.167458,41.184086 
	C23.612392,41.664001 23.950424,41.864677 24.279608,42.427452 
	C24.381746,43.255310 24.492731,43.721062 24.464115,44.395226 
	C24.221972,44.735744 24.119431,44.867847 23.719990,45.035686 
	C23.086800,45.464138 22.750513,45.856853 22.414228,46.249569 
	C22.913458,46.499363 23.412685,46.749157 23.898117,47.395721 
	C23.939510,48.536228 23.994696,49.279957 24.056347,50.317200 
	C24.087725,51.001240 24.112640,51.391773 23.954977,52.079933 
	C23.401381,52.653248 23.030361,52.928932 22.378902,53.198280 
	C21.725744,53.185486 21.353027,53.179024 20.750038,53.034172 
	C20.097393,52.582619 19.675016,52.269459 19.158630,51.616608 
	C18.663460,50.198700 18.262302,49.120487 17.852345,47.749992 
	C17.502220,46.986774 17.160894,46.515831 16.769905,45.709534 
	C16.506086,44.514328 16.291937,43.654480 16.099686,42.619267 
	C16.121584,42.443901 16.059900,42.095871 15.959726,41.831039 
	C15.589985,41.306427 15.320417,41.046646 15.053252,40.591366 
	C15.055654,40.395866 15.002857,40.008415 15.026855,39.758873 
	C15.051093,39.342201 15.051333,39.175072 15.073921,39.022987 
	C15.096269,39.038040 15.142492,39.010342 15.447487,38.960773 
	C16.138159,38.296631 16.523838,37.682056 16.824997,36.771729 
	C15.857068,36.353001 14.973659,36.230026 14.057356,36.403194 
	C13.983275,37.093262 13.942087,37.487183 13.532782,37.908531 
	C12.429047,37.990681 11.693428,38.045406 10.583809,38.059021 
	C9.455157,38.006214 8.700508,37.994518 7.660283,37.982708 
	C6.890078,38.240952 6.405447,38.499306 5.667962,38.915558 
	C4.937793,39.684864 4.460478,40.296276 3.758264,41.021599 
	C3.354481,41.411129 3.175596,41.686749 2.664521,41.996063 
	C1.888220,42.019836 1.444110,42.009918 1.000000,42.000000 
M6.658105,29.070051 
	C6.779194,29.052422 6.900284,29.034792 7.338816,28.893661 
	C7.217993,28.919794 7.097169,28.945925 6.658105,29.070051 
M52.282787,34.499821 
	C51.605675,35.429874 50.928566,36.359924 50.251453,37.289978 
	C50.842758,37.474174 51.434063,37.658371 52.025368,37.842567 
	C52.316795,36.782272 52.608227,35.721981 52.282787,34.499821 
M5.855402,33.459053 
	C5.665939,33.131435 5.476476,32.803822 5.287014,32.476204 
	C5.003682,32.749603 4.720351,33.023003 4.437020,33.296402 
	C4.768566,33.480118 5.100111,33.663830 5.855402,33.459053 
z"/>
<path fill="#FBFBFB" opacity="1.000000" stroke="none" 
	d="
M59.905106,46.048172 
	C61.320347,46.032131 62.735592,46.016090 64.575417,46.000023 
	C65.000000,52.222305 65.000000,58.444611 65.000000,65.000000 
	C62.336586,65.000000 59.659344,65.000000 56.627628,64.712128 
	C57.191372,63.038906 58.109585,61.653553 59.309063,60.202194 
	C59.747780,59.437931 59.905231,58.739666 60.033913,57.767960 
	C59.853752,57.173874 59.702354,56.853230 59.591866,56.446480 
	C59.632778,56.360374 59.613461,56.170696 59.844139,55.858337 
	C60.115158,55.290276 60.155499,55.034569 60.239975,54.631836 
	C60.201099,54.120724 59.974586,53.925804 59.585976,53.682175 
	C59.567387,53.464298 59.571972,53.026993 59.801685,52.882996 
	C59.995247,51.813862 59.959091,50.888721 59.955521,49.572567 
	C59.960438,48.137093 59.932774,47.092632 59.905106,46.048172 
z"/>
<path fill="#F1F1F1" opacity="1.000000" stroke="none" 
	d="
M35.000000,65.000000 
	C26.979099,65.000000 18.958199,65.000000 10.432542,64.657188 
	C8.954444,62.867741 7.981102,61.421101 7.411829,60.020973 
	C12.867897,60.595638 17.919897,61.123802 23.328579,61.601013 
	C24.139071,61.400455 24.592878,61.250851 25.259933,61.174110 
	C25.473181,61.246967 25.904734,61.115654 26.307846,61.198967 
	C27.803694,61.230274 28.896433,61.178272 29.919216,61.342957 
	C29.849262,61.559639 30.040485,61.972939 30.230503,62.247192 
	C31.053801,62.526527 31.687080,62.531609 32.645599,62.563423 
	C33.619953,62.562534 34.269062,62.534912 34.974510,62.922287 
	C35.020569,63.891521 35.010284,64.445763 35.000000,65.000000 
z"/>
<path fill="#7A706D" opacity="1.000000" stroke="none" 
	d="
M47.000000,65.000000 
	C44.957684,65.000000 42.915363,65.000000 40.693470,64.705002 
	C40.020340,63.580524 39.526787,62.751038 39.033302,61.674232 
	C39.033367,61.426910 39.067932,60.933475 39.331581,60.739479 
	C40.437256,58.998287 41.279278,57.451088 42.425743,55.936966 
	C43.138374,55.954979 43.546562,55.939919 43.971649,56.193962 
	C43.992943,56.642761 43.997337,56.822464 44.093163,57.170181 
	C44.455605,57.217224 44.726616,57.096252 45.025101,56.971806 
	C45.052570,56.968334 45.104832,56.950012 45.491974,56.936485 
	C46.911816,56.918167 47.944519,56.913380 49.307549,56.943047 
	C50.080074,56.969734 50.522274,56.961960 51.367638,56.970554 
	C52.847260,56.991199 53.923714,56.995472 55.000221,57.000000 
	C55.000271,57.000248 55.008118,57.003700 55.023998,57.370716 
	C55.070698,58.226570 55.101513,58.715412 54.978828,59.385269 
	C54.591011,59.788864 54.319878,59.949173 53.809105,59.785564 
	C52.086365,60.441971 50.566444,61.360020 48.734192,62.468285 
	C47.947906,63.439003 47.473949,64.219498 47.000000,65.000000 
z"/>
<path fill="#F9F9F9" opacity="1.000000" stroke="none" 
	d="
M7.007761,59.974464 
	C7.981102,61.421101 8.954444,62.867741 9.963893,64.657188 
	C7.044525,65.000000 4.089049,65.000000 1.000000,65.000000 
	C1.000000,58.313030 1.000000,51.625427 1.171352,44.455826 
	C1.342704,43.973831 1.686405,43.974613 1.867132,44.254341 
	C2.616179,44.784241 3.184498,45.034416 3.779119,45.299080 
	C3.805419,45.313572 3.771323,45.283989 3.496025,45.529373 
	C3.299162,46.945568 3.377597,48.116383 3.568743,49.553253 
	C3.989289,50.302612 4.297123,50.785919 4.583591,51.445251 
	C4.562225,51.621277 4.527102,51.974163 4.269897,52.044594 
	C4.051045,52.763630 4.089399,53.412239 3.977193,54.330166 
	C1.194865,58.576305 5.746474,58.301712 7.007761,59.974464 
z"/>
<path fill="#F2F2F2" opacity="1.000000" stroke="none" 
	d="
M59.027802,60.268200 
	C58.109585,61.653553 57.191372,63.038906 56.136581,64.712128 
	C55.250000,65.000000 54.500000,65.000000 53.373158,64.616051 
	C52.995644,63.464214 52.994972,62.696331 53.256065,61.830254 
	C53.888443,61.761692 54.259060,61.791321 54.953598,61.781479 
	C55.587578,60.974236 55.897636,60.206459 56.500618,59.361259 
	C57.195240,59.281509 57.596935,59.279182 58.109848,59.494118 
	C58.468456,59.928158 58.737370,60.113766 59.027802,60.268200 
z"/>
<path fill="#ABB6BA" opacity="1.000000" stroke="none" 
	d="
M39.033237,61.921551 
	C39.526787,62.751038 40.020340,63.580524 40.256947,64.705002 
	C38.611111,65.000000 37.222221,65.000000 35.416664,65.000000 
	C35.010284,64.445763 35.020569,63.891521 34.905167,62.700287 
	C34.497078,61.728180 34.214680,61.393070 34.024540,60.812904 
	C34.148624,60.396206 34.180447,60.224567 34.359657,60.064953 
	C34.507046,60.076977 34.807522,60.098476 35.012428,60.121094 
	C35.217331,60.143707 35.619827,60.054363 35.754868,60.308167 
	C36.180824,60.804420 36.471748,61.046871 37.005890,61.473316 
	C37.843819,61.745392 38.438526,61.833473 39.033237,61.921551 
z"/>
<path fill="#E5E5E5" opacity="1.000000" stroke="none" 
	d="
M52.994301,61.928444 
	C52.994972,62.696331 52.995644,63.464214 52.998158,64.616051 
	C51.285641,65.000000 49.571285,65.000000 47.428459,65.000000 
	C47.473949,64.219498 47.947906,63.439003 49.130676,62.454971 
	C50.891094,62.143776 51.942696,62.036110 52.994301,61.928444 
z"/>
<path fill="#D0BEA7" opacity="1.000000" stroke="none" 
	d="
M3.752819,45.284592 
	C3.184498,45.034416 2.616179,44.784241 1.840808,44.046509 
	C1.428195,43.366180 1.216942,43.179863 1.000000,43.000000 
	C1.000000,43.000000 1.000000,42.500000 1.000000,42.250000 
	C1.444110,42.009918 1.888220,42.019836 2.679755,42.300770 
	C3.350232,43.047306 3.673283,43.522827 4.211782,44.025776 
	C4.427231,44.053207 4.857234,44.114674 4.742064,44.364838 
	C4.335536,44.838196 4.044178,45.061394 3.752819,45.284592 
z"/>
<path fill="#FFFEFE" opacity="1.000000" stroke="none" 
	d="
M1.000000,43.250000 
	C1.216942,43.179863 1.428195,43.366180 1.660081,43.766781 
	C1.686405,43.974613 1.342704,43.973831 1.171352,43.986916 
	C1.000000,44.000000 1.000000,43.500000 1.000000,43.250000 
z"/>
<path fill="#423B39" opacity="1.000000" stroke="none" 
	d="
M38.861813,39.012619 
	C40.184097,40.655884 41.506382,42.299149 42.866669,44.609200 
	C42.925819,45.520111 42.946968,45.764236 42.914082,45.987778 
	C42.860043,45.967194 42.752930,46.010826 42.444889,46.043137 
	C41.089943,46.722118 40.043034,47.368793 38.673943,48.007591 
	C37.922718,47.998432 37.493675,47.997158 37.037346,47.684570 
	C36.975498,46.958057 36.940933,46.542858 36.863312,45.931900 
	C36.555588,45.843616 36.290928,45.951099 35.693787,46.052292 
	C34.918922,46.016663 34.476536,45.987320 33.924686,45.739685 
	C33.599586,45.265312 33.333462,45.082878 32.986412,44.658325 
	C32.628391,43.571838 32.300812,42.801109 31.990553,41.670425 
	C32.000370,40.830044 31.992861,40.349617 32.255886,39.822197 
	C32.983692,39.471687 33.440964,39.168171 34.183197,38.894077 
	C34.659107,38.919773 34.850056,38.916042 35.420891,38.961128 
	C36.821125,39.010834 37.841469,39.011726 38.861813,39.012619 
z"/>
<path fill="#4E4442" opacity="1.000000" stroke="none" 
	d="
M28.916847,6.894598 
	C30.056528,7.180262 31.492308,7.127092 32.280064,7.815482 
	C34.590904,9.834844 36.644039,12.149111 38.643219,14.780072 
	C37.644474,15.477627 36.800621,15.742980 35.684067,15.877155 
	C34.280136,15.434216 33.148911,15.122457 31.678795,14.854771 
	C30.886332,14.940941 30.432751,14.983035 29.890295,14.748040 
	C29.221100,13.973499 28.640781,13.476048 27.937096,12.746727 
	C27.549543,12.299017 27.285358,12.083177 26.854805,11.786411 
	C26.688437,11.705485 26.319502,11.733740 26.319502,11.733740 
	C26.259729,11.405280 26.243587,11.074690 26.686852,10.487915 
	C27.707369,9.120774 28.312107,8.007687 28.916847,6.894598 
z"/>
<path fill="#494041" opacity="1.000000" stroke="none" 
	d="
M35.956768,16.008333 
	C36.800621,15.742980 37.644474,15.477627 38.798592,15.081932 
	C39.741947,17.658537 40.375038,20.365484 40.666687,23.622498 
	C38.911922,24.833069 37.498596,25.493572 35.829735,26.090191 
	C35.399338,26.010195 35.224480,25.994085 35.016136,25.662006 
	C34.949898,24.923969 34.917145,24.501902 34.994957,23.813065 
	C35.154850,23.360197 35.204174,23.174105 35.578892,22.943626 
	C36.292694,21.802444 36.991005,20.704300 36.986229,19.609222 
	C36.980988,18.407452 36.327686,17.208509 35.956768,16.008333 
z"/>
<path fill="#7B6B68" opacity="1.000000" stroke="none" 
	d="
M25.046686,61.101250 
	C24.592878,61.250851 24.139071,61.400455 23.291950,61.216133 
	C21.266096,59.588081 19.633558,58.293957 18.099669,56.743965 
	C18.462671,56.010742 18.727028,55.533382 19.292591,55.002090 
	C20.055967,54.356297 20.518137,53.764431 20.980309,53.172565 
	C21.353027,53.179024 21.725744,53.185486 22.437016,53.411556 
	C22.775570,53.631168 22.992161,54.016834 23.055279,54.383598 
	C23.413416,56.210606 23.708435,57.670845 24.146528,59.345097 
	C24.561743,59.767666 24.833881,59.976223 25.079042,60.413109 
	C25.052065,60.641441 25.046686,61.101250 25.046686,61.101250 
z"/>
<path fill="#A38879" opacity="1.000000" stroke="none" 
	d="
M24.049883,50.023689 
	C23.994696,49.279957 23.939510,48.536228 23.978178,47.068047 
	C24.053652,45.895718 24.035271,45.447834 24.016891,44.999954 
	C24.119431,44.867847 24.221972,44.735744 24.683590,44.355736 
	C25.336134,44.034222 25.634148,43.995884 26.269470,44.160896 
	C27.123554,45.926712 27.644869,47.524464 28.125580,49.486115 
	C28.076180,50.585373 28.067385,51.320732 27.715982,52.062706 
	C26.924170,52.150330 26.474964,52.231342 25.990263,51.964363 
	C25.319805,51.085480 24.684845,50.554585 24.049883,50.023689 
z"/>
<path fill="#B98E6C" opacity="1.000000" stroke="none" 
	d="
M40.950924,29.117619 
	C40.777374,30.536348 40.603825,31.955076 39.964439,33.785400 
	C39.002113,34.467457 38.505627,34.737915 37.848083,34.767143 
	C37.130333,34.011852 36.573631,33.497799 36.286774,32.815773 
	C36.692596,32.253426 36.828579,31.859047 36.879845,31.322294 
	C36.721275,30.940155 36.782352,30.742155 37.171215,30.258623 
	C38.559689,29.660088 39.755306,29.388855 40.950924,29.117619 
z"/>
<path fill="#F9F9F9" opacity="1.000000" stroke="none" 
	d="
M40.965988,28.684498 
	C39.755306,29.388855 38.559689,29.660088 36.843437,30.140453 
	C35.878811,30.227779 35.434818,30.105972 35.026077,29.766361 
	C35.061325,29.548553 35.104065,29.109344 35.294594,28.922718 
	C35.685169,27.875420 35.885216,27.014748 36.085266,26.154076 
	C37.498596,25.493572 38.911922,24.833069 40.647301,24.048214 
	C40.973251,25.366369 40.977150,26.808872 40.965988,28.684498 
z"/>
<path fill="#DEC394" opacity="1.000000" stroke="none" 
	d="
M21.097626,33.858887 
	C21.103601,32.795040 21.109575,31.731192 21.483152,30.392704 
	C22.857634,30.442854 23.864511,30.767641 24.938091,31.240177 
	C25.004793,31.387926 25.062769,31.706917 25.035143,32.126755 
	C24.986044,33.652294 24.964571,34.757996 24.743271,36.004120 
	C24.193378,36.475483 23.843313,36.806431 23.349361,37.094097 
	C23.205479,37.050819 22.918606,36.961349 22.945213,36.617401 
	C22.347090,35.468597 21.722357,34.663742 21.097626,33.858887 
z"/>
<path fill="#BAA692" opacity="1.000000" stroke="none" 
	d="
M25.693087,24.371042 
	C25.305429,23.832624 24.917774,23.294207 24.608822,22.411648 
	C24.687527,22.067507 24.960630,21.954113 25.271133,21.939762 
	C26.346638,21.643614 27.111641,21.361814 28.068996,21.399445 
	C28.451750,23.415319 28.642151,25.111765 28.546017,26.840008 
	C27.553558,27.188488 26.847635,27.505167 26.097874,27.610943 
	C26.054035,27.400040 25.980085,26.975613 25.985134,26.626850 
	C25.946209,25.814074 25.902237,25.350061 25.858265,24.886047 
	C25.858265,24.886047 25.727310,24.811249 25.962719,24.800575 
	C26.029779,24.650284 25.861433,24.510664 25.693087,24.371042 
z"/>
<path fill="#FBFBFB" opacity="1.000000" stroke="none" 
	d="
M52.998398,48.974880 
	C53.097988,47.258446 53.197582,45.542007 53.321033,43.414299 
	C55.204662,45.009483 56.544594,46.144226 57.770119,47.851807 
	C57.745312,48.813457 57.834911,49.202274 57.488430,49.480835 
	C56.465473,49.301708 55.878593,49.232838 54.949631,49.123375 
	C54.378242,49.095421 54.148933,49.108055 53.687645,49.094833 
	C53.455658,49.068981 52.998402,48.974880 52.998398,48.974880 
z"/>
<path fill="#9A7D63" opacity="1.000000" stroke="none" 
	d="
M38.009140,35.008377 
	C38.505627,34.737915 39.002113,34.467457 39.758530,34.082748 
	C39.760597,35.454689 39.502728,36.940880 39.053337,38.719845 
	C37.841469,39.011726 36.821125,39.010834 35.529003,38.699715 
	C35.524723,37.889942 35.792225,37.390396 36.318512,36.789822 
	C37.054577,36.128654 37.531860,35.568516 38.009140,35.008377 
z"/>
<path fill="#C9BBA8" opacity="1.000000" stroke="none" 
	d="
M45.040466,50.821194 
	C46.414803,50.894855 47.789135,50.968517 49.705814,51.285831 
	C50.535282,51.749874 50.822411,51.970268 51.080841,52.487976 
	C51.031239,53.187572 51.010334,53.589848 50.777046,54.108051 
	C50.299717,54.424358 50.108582,54.679943 49.712776,54.877796 
	C48.687046,54.512947 47.939804,54.261036 47.050194,53.777222 
	C46.617214,53.332798 46.326599,53.120285 45.817261,52.661461 
	C44.981331,52.197071 44.364120,51.978989 43.801464,51.549164 
	C43.856014,51.337425 43.988560,50.920692 43.988327,50.956924 
	C43.988094,50.993153 43.919403,50.970085 44.203098,50.958687 
	C44.671352,50.905258 44.855907,50.863228 45.040466,50.821194 
z"/>
<path fill="#F8EBD3" opacity="1.000000" stroke="none" 
	d="
M4.857234,44.114674 
	C4.857234,44.114674 4.427231,44.053207 4.208176,43.694748 
	C3.997833,42.895111 4.006545,42.453934 4.371593,41.946903 
	C5.125559,40.839920 5.523188,39.798790 5.920816,38.757660 
	C6.405447,38.499306 6.890078,38.240952 7.631342,38.268417 
	C7.893444,38.745567 7.898913,38.936897 7.925646,39.512897 
	C7.967603,40.936043 7.988297,41.974518 8.001953,43.273720 
	C7.983253,43.707928 7.971589,43.881413 7.573438,44.044807 
	C6.410378,44.061367 5.633806,44.088020 4.857234,44.114674 
z"/>
<path fill="#7E665C" opacity="1.000000" stroke="none" 
	d="
M17.861145,48.042271 
	C18.262302,49.120487 18.663460,50.198700 18.873121,51.720230 
	C18.414087,52.459480 18.146549,52.755421 17.539736,53.034203 
	C16.518772,53.024059 15.837081,53.031075 15.033039,52.705204 
	C14.807850,52.159416 14.705013,51.946510 14.716813,51.398735 
	C15.041943,50.387077 15.252436,49.710289 15.724514,49.003082 
	C16.611113,48.662533 17.236128,48.352402 17.861145,48.042271 
z"/>
<path fill="#D4C9B9" opacity="1.000000" stroke="none" 
	d="
M24.871387,31.092426 
	C23.864511,30.767641 22.857634,30.442854 21.538670,30.103264 
	C18.971956,26.669138 21.568588,26.881941 24.134960,27.201920 
	C24.658127,28.793217 24.764757,29.942822 24.871387,31.092426 
z"/>
<path fill="#D4CAB8" opacity="1.000000" stroke="none" 
	d="
M10.957809,38.100128 
	C11.693428,38.045406 12.429047,37.990681 13.787786,38.040497 
	C14.654768,38.433472 14.898629,38.721909 15.142492,39.010342 
	C15.142492,39.010342 15.096269,39.038040 14.890574,39.101173 
	C14.609385,39.271683 14.449062,39.446598 14.472096,39.475533 
	C14.627294,39.670456 14.821371,39.834423 15.002857,40.008415 
	C15.002857,40.008415 15.055654,40.395866 15.005832,40.908699 
	C14.895316,41.625687 14.834622,41.829842 14.495033,42.004723 
	C13.132538,41.985485 12.048940,41.995518 10.975648,41.631447 
	C10.990211,40.509766 10.994467,39.762192 10.990394,38.785912 
	C10.982064,38.557201 10.957809,38.100128 10.957809,38.100128 
z"/>
<path fill="#E8DFC7" opacity="1.000000" stroke="none" 
	d="
M10.965340,42.005550 
	C12.048940,41.995518 13.132538,41.985485 14.816648,42.047466 
	C15.631406,42.111607 15.845653,42.103737 16.059900,42.095871 
	C16.059900,42.095871 16.121584,42.443901 15.734087,42.732571 
	C14.975947,43.677528 14.605305,44.333813 14.030552,44.995583 
	C13.539818,45.004597 13.253187,45.007412 12.922842,44.726963 
	C12.241203,43.631462 11.603271,42.818504 10.965340,42.005550 
z"/>
<path fill="#A58167" opacity="1.000000" stroke="none" 
	d="
M26.200653,12.053185 
	C26.319502,11.733740 26.688437,11.705485 26.946285,12.039545 
	C27.489574,12.575269 27.775019,12.776933 28.060463,12.978598 
	C28.640781,13.476048 29.221100,13.973499 29.903812,14.732810 
	C30.006207,14.994669 30.030878,14.963411 29.806656,15.071745 
	C29.292416,15.373343 29.105528,15.639118 29.033184,16.226608 
	C29.044598,16.475811 29.060440,16.974489 28.939758,17.191500 
	C28.621136,17.691059 28.356127,17.879036 28.015944,17.979231 
	C28.007833,17.986021 27.992037,18.000851 27.865332,17.685474 
	C27.378469,16.786539 27.018312,16.202984 26.658154,15.619428 
	C26.466038,14.537162 26.273922,13.454897 26.200653,12.053185 
z"/>
<path fill="#F3E1AB" opacity="1.000000" stroke="none" 
	d="
M52.591221,34.580753 
	C52.608227,35.721981 52.316795,36.782272 52.025368,37.842567 
	C51.434063,37.658371 50.842758,37.474174 50.251453,37.289978 
	C50.928566,36.359924 51.605675,35.429874 52.591221,34.580753 
z"/>
<path fill="#E7D8BB" opacity="1.000000" stroke="none" 
	d="
M51.109535,52.190659 
	C50.822411,51.970268 50.535282,51.749874 50.119778,51.288757 
	C50.802307,50.441498 51.613220,49.834965 52.711266,49.101658 
	C52.998402,48.974880 53.455658,49.068981 53.711544,49.439934 
	C53.993279,50.507927 54.019131,51.204971 53.679146,51.960808 
	C52.578716,52.076618 51.844128,52.133636 51.109535,52.190659 
z"/>
<path fill="#645857" opacity="1.000000" stroke="none" 
	d="
M44.016670,46.089668 
	C44.404449,47.167168 44.792229,48.244667 44.760025,49.659607 
	C44.199829,50.321392 44.059616,50.645737 43.919403,50.970085 
	C43.919403,50.970085 43.988094,50.993153 43.594025,50.865494 
	C42.945545,50.827236 42.691143,50.916637 42.473320,50.979637 
	C42.509899,50.953232 42.573948,51.016777 42.299553,50.891502 
	C41.832474,50.708611 41.639786,50.650990 41.756748,50.302605 
	C42.295246,48.678169 42.524086,47.344498 42.752930,46.010826 
	C42.752930,46.010826 42.860043,45.967194 43.176689,46.003426 
	C43.667782,46.056324 43.842228,46.072994 44.016670,46.089668 
z"/>
<path fill="#C1A289" opacity="1.000000" stroke="none" 
	d="
M26.357132,15.776463 
	C27.018312,16.202984 27.378469,16.786539 27.558437,17.716461 
	C26.608118,18.681879 25.837986,19.300934 24.876480,19.905319 
	C24.685102,19.890652 24.305107,19.945107 24.305107,19.945107 
	C24.888775,18.607903 25.472443,17.270700 26.357132,15.776463 
z"/>
<path fill="#AF7A6B" opacity="1.000000" stroke="none" 
	d="
M17.879009,53.051361 
	C18.146549,52.755421 18.414087,52.459480 18.967133,52.059921 
	C19.675016,52.269459 20.097393,52.582619 20.750038,53.034172 
	C20.518137,53.764431 20.055967,54.356297 19.055807,54.820496 
	C18.304882,54.145672 18.091946,53.598518 17.879009,53.051361 
z"/>
<path fill="#D0B782" opacity="1.000000" stroke="none" 
	d="
M57.924507,49.591087 
	C57.834911,49.202274 57.745312,48.813457 57.826393,48.174088 
	C58.458469,47.374523 58.919865,46.825512 59.643181,46.162338 
	C59.932774,47.092632 59.960438,48.137093 59.624466,49.571175 
	C58.825413,49.888504 58.389999,49.816219 57.943619,49.717014 
	C57.932652,49.690098 57.924507,49.591087 57.924507,49.591087 
z"/>
<path fill="#8E796E" opacity="1.000000" stroke="none" 
	d="
M17.852345,47.749992 
	C17.236128,48.352402 16.611113,48.662533 15.615101,48.636765 
	C15.181787,47.540176 15.119472,46.779491 15.350896,46.026241 
	C16.036282,46.037411 16.427927,46.041149 16.819571,46.044888 
	C17.160894,46.515831 17.502220,46.986774 17.852345,47.749992 
z"/>
<path fill="#9A735B" opacity="1.000000" stroke="none" 
	d="
M28.631500,7.041267 
	C28.312107,8.007687 27.707369,9.120774 26.738934,10.244656 
	C27.032207,9.232944 27.689180,8.210440 28.631500,7.041267 
z"/>
<path fill="#E8DD9B" opacity="1.000000" stroke="none" 
	d="
M15.447487,38.960773 
	C14.898629,38.721909 14.654768,38.433472 14.155903,38.013069 
	C13.942087,37.487183 13.983275,37.093262 14.339605,36.501247 
	C15.406337,36.557934 16.157927,36.812706 16.909515,37.067482 
	C16.523838,37.682056 16.138159,38.296631 15.447487,38.960773 
z"/>
<path fill="#FDFDFC" opacity="1.000000" stroke="none" 
	d="
M24.938091,31.240177 
	C24.764757,29.942822 24.658127,28.793217 24.530344,27.297855 
	C24.509192,26.952101 24.728037,26.992674 25.095963,26.960934 
	C25.635954,26.944666 25.808020,26.960138 25.980085,26.975613 
	C25.980085,26.975613 26.054035,27.400040 26.074457,27.912634 
	C26.099688,28.626602 26.104498,28.827976 26.078583,29.367769 
	C26.065195,30.159149 26.082531,30.612112 25.984390,31.261076 
	C25.666290,31.753662 25.397575,31.836941 25.062769,31.706917 
	C25.062769,31.706917 25.004793,31.387926 24.938091,31.240177 
z"/>
<path fill="#F4F0E2" opacity="1.000000" stroke="none" 
	d="
M21.066875,34.261612 
	C21.722357,34.663742 22.347090,35.468597 22.637245,36.635323 
	C21.891928,37.024532 21.481190,37.051868 21.070452,37.079208 
	C21.059010,36.274254 21.047569,35.469296 21.066875,34.261612 
z"/>
<path fill="#D0BCA8" opacity="1.000000" stroke="none" 
	d="
M23.060553,40.904846 
	C22.953438,40.587219 22.758663,40.338139 22.394112,39.750931 
	C22.639050,38.775524 22.966105,38.206802 23.566395,37.730209 
	C24.276590,38.175846 24.713551,38.529358 25.081707,39.172112 
	C24.986462,39.657803 24.960022,39.854244 24.689182,40.137909 
	C23.983374,40.451706 23.521963,40.678276 23.060553,40.904846 
z"/>
<path fill="#DFCFBB" opacity="1.000000" stroke="none" 
	d="
M23.293159,37.638081 
	C22.966105,38.206802 22.639050,38.775524 22.178656,39.643284 
	C21.709328,39.208469 21.373337,38.474621 21.053900,37.409988 
	C21.481190,37.051868 21.891928,37.024532 22.610636,36.979271 
	C22.918606,36.961349 23.205479,37.050819 23.280228,37.212387 
	C23.354975,37.373959 23.293161,37.638081 23.293159,37.638081 
z"/>
<path fill="#7E665C" opacity="1.000000" stroke="none" 
	d="
M24.056347,50.317200 
	C24.684845,50.554585 25.319805,51.085480 26.003685,52.103409 
	C26.052601,52.590446 26.041685,52.877708 25.757236,52.855728 
	C25.027712,52.483265 24.582634,52.132786 24.137554,51.782307 
	C24.112640,51.391773 24.087725,51.001240 24.056347,50.317200 
z"/>
<path fill="#E8DFCE" opacity="1.000000" stroke="none" 
	d="
M5.667962,38.915558 
	C5.523188,39.798790 5.125559,40.839920 4.364473,41.670536 
	C3.995066,41.275909 3.989114,41.091797 3.983162,40.907684 
	C4.460478,40.296276 4.937793,39.684864 5.667962,38.915558 
z"/>
<path fill="#CAAE93" opacity="1.000000" stroke="none" 
	d="
M25.936703,43.992828 
	C25.634148,43.995884 25.336134,44.034222 24.823191,44.147324 
	C24.492731,43.721062 24.381746,43.255310 24.571777,42.410618 
	C25.068356,42.012142 25.263920,41.992603 25.652197,41.971748 
	C25.844910,41.970440 26.232525,42.019993 26.163387,42.345604 
	C26.041735,43.111752 25.989218,43.552288 25.936703,43.992828 
z"/>
<path fill="#A39386" opacity="1.000000" stroke="none" 
	d="
M16.769905,45.709534 
	C16.427927,46.041149 16.036282,46.037411 15.166339,45.752022 
	C14.536914,45.310276 14.385787,45.150188 14.234661,44.990101 
	C14.605305,44.333813 14.975947,43.677528 15.712189,42.907936 
	C16.291937,43.654480 16.506086,44.514328 16.769905,45.709534 
z"/>
<path fill="#EDEDE9" opacity="1.000000" stroke="none" 
	d="
M23.954977,52.079933 
	C24.582634,52.132786 25.027712,52.483265 25.766479,53.137882 
	C26.041252,53.629166 26.022337,53.816315 25.628471,54.047363 
	C24.499733,54.066452 23.745947,54.041641 22.992161,54.016834 
	C22.992161,54.016834 22.775570,53.631168 22.717457,53.417892 
	C23.030361,52.928932 23.401381,52.653248 23.954977,52.079933 
z"/>
<path fill="#FAF1BE" opacity="1.000000" stroke="none" 
	d="
M16.824997,36.771729 
	C16.157927,36.812706 15.406337,36.557934 14.372499,36.205105 
	C14.973659,36.230026 15.857068,36.353001 16.824997,36.771729 
z"/>
<path fill="#FDFDFC" opacity="1.000000" stroke="none" 
	d="
M23.719990,45.035686 
	C24.035271,45.447834 24.053652,45.895718 23.991974,46.671272 
	C23.412685,46.749157 22.913458,46.499363 22.414228,46.249569 
	C22.750513,45.856853 23.086800,45.464138 23.719990,45.035686 
z"/>
<path fill="#DFCFBB" opacity="1.000000" stroke="none" 
	d="
M24.037086,20.053461 
	C24.305107,19.945107 24.685102,19.890652 24.851036,20.245234 
	C24.998190,21.051249 24.979410,21.502680 24.960630,21.954113 
	C24.960630,21.954113 24.687527,22.067507 24.536730,22.080244 
	C24.180311,21.449259 23.974689,20.805538 24.037086,20.053461 
z"/>
<path fill="#E8DD9B" opacity="1.000000" stroke="none" 
	d="
M5.643529,33.653297 
	C5.100111,33.663830 4.768566,33.480118 4.437020,33.296402 
	C4.720351,33.023003 5.003682,32.749603 5.287014,32.476204 
	C5.476476,32.803822 5.665939,33.131435 5.643529,33.653297 
z"/>
<path fill="#B1915C" opacity="1.000000" stroke="none" 
	d="
M44.373329,46.032211 
	C43.842228,46.072994 43.667782,46.056324 43.230728,46.024010 
	C42.946968,45.764236 42.925819,45.520111 42.975594,44.913353 
	C43.940022,44.737690 44.833530,44.924664 45.727036,45.111633 
	C45.394688,45.399342 45.062336,45.687050 44.373329,46.032211 
z"/>
<path fill="#DFCFBB" opacity="1.000000" stroke="none" 
	d="
M3.758264,41.021599 
	C3.989114,41.091797 3.995066,41.275909 4.008138,41.736389 
	C4.006545,42.453934 3.997833,42.895111 3.992727,43.667316 
	C3.673283,43.522827 3.350232,43.047306 3.011946,42.267075 
	C3.175596,41.686749 3.354481,41.411129 3.758264,41.021599 
z"/>
<path fill="#E3DFD9" opacity="1.000000" stroke="none" 
	d="
M25.459484,41.973061 
	C25.263920,41.992603 25.068356,42.012142 24.580624,42.048515 
	C23.950424,41.864677 23.612392,41.664001 23.167458,41.184086 
	C23.521963,40.678276 23.983374,40.451706 24.785969,40.455368 
	C25.237928,41.114750 25.348707,41.543907 25.459484,41.973061 
z"/>
<path fill="#BAB0A0" opacity="1.000000" stroke="none" 
	d="
M10.583809,38.059021 
	C10.957809,38.100128 10.982064,38.557201 10.678146,38.793964 
	C9.959904,39.072693 9.545578,39.114658 8.825167,39.122215 
	C8.314182,39.101284 8.109282,39.114758 7.904382,39.128231 
	C7.898913,38.936897 7.893444,38.745567 7.916917,38.268524 
	C8.700508,37.994518 9.455157,38.006214 10.583809,38.059021 
z"/>
<path fill="#D3BD9B" opacity="1.000000" stroke="none" 
	d="
M25.985134,26.626850 
	C25.808020,26.960138 25.635954,26.944666 25.207006,26.968258 
	C25.066753,26.394751 25.183380,25.782181 25.579136,25.027828 
	C25.902237,25.350061 25.946209,25.814074 25.985134,26.626850 
z"/>
<path fill="#DFCFBB" opacity="1.000000" stroke="none" 
	d="
M25.711729,24.443211 
	C25.861433,24.510664 26.029779,24.650284 25.975691,24.726295 
	C25.753254,24.662685 25.730371,24.515379 25.711729,24.443211 
z"/>
<path fill="#F7E8BF" opacity="1.000000" stroke="none" 
	d="
M7.021374,29.017160 
	C6.900284,29.034792 6.779194,29.052422 6.827708,29.033382 
	C6.997312,28.996714 7.021374,29.017160 7.021374,29.017160 
z"/>
<path fill="#F7E8BF" opacity="1.000000" stroke="none" 
	d="
M6.986829,28.984386 
	C7.097169,28.945925 7.217993,28.919794 7.180095,28.955410 
	C7.021374,29.017160 6.997312,28.996714 6.986829,28.984386 
z"/>
<path fill="#C3BAAA" opacity="1.000000" stroke="none" 
	d="
M15.959726,41.831039 
	C15.845653,42.103737 15.631406,42.111607 15.095543,42.076736 
	C14.834622,41.829842 14.895316,41.625687 15.003430,41.104202 
	C15.320417,41.046646 15.589985,41.306427 15.959726,41.831039 
z"/>
<path fill="#C3BAAA" opacity="1.000000" stroke="none" 
	d="
M15.026855,39.758873 
	C14.821371,39.834423 14.627294,39.670456 14.472096,39.475533 
	C14.449062,39.446598 14.609385,39.271683 14.868227,39.086121 
	C15.051333,39.175072 15.051093,39.342201 15.026855,39.758873 
z"/>
<path fill="#F1F1F1" opacity="1.000000" stroke="none" 
	d="
M44.203098,50.958687 
	C44.059616,50.645737 44.199829,50.321392 44.635193,49.922863 
	C44.930340,49.848682 44.995159,50.335323 45.017815,50.578259 
	C44.855907,50.863228 44.671352,50.905258 44.203098,50.958687 
z"/>
<path fill="#958280" opacity="1.000000" stroke="none" 
	d="
M57.998634,59.276855 
	C57.596935,59.279182 57.195240,59.281509 56.240082,59.262428 
	C55.501858,59.228760 55.317097,59.216507 55.132332,59.204250 
	C55.101513,58.715412 55.070698,58.226570 55.381912,57.215450 
	C57.020454,56.519012 58.316956,56.344852 59.613461,56.170692 
	C59.613461,56.170696 59.632778,56.360374 59.395573,56.750660 
	C59.074421,57.365112 58.990475,57.589275 58.675514,58.000523 
	C58.295876,58.550690 58.147255,58.913773 57.998634,59.276855 
z"/>
<path fill="#82706C" opacity="1.000000" stroke="none" 
	d="
M59.844139,55.858337 
	C58.316956,56.344852 57.020454,56.519012 55.366035,56.848434 
	C55.008118,57.003700 55.000271,57.000248 54.998566,56.600014 
	C55.000809,55.132515 55.004749,54.065247 55.186226,52.908813 
	C55.363762,52.819645 55.742229,52.697960 56.021629,52.866608 
	C56.867569,53.351982 57.434105,53.668705 57.999146,53.990768 
	C57.997650,53.996101 57.990467,54.006176 58.275055,54.312729 
	C59.105042,54.672478 59.650444,54.725666 60.195843,54.778862 
	C60.155499,55.034569 60.115158,55.290276 59.844139,55.858337 
z"/>
<path fill="#C4C1B4" opacity="1.000000" stroke="none" 
	d="
M57.954582,49.743935 
	C58.389999,49.816219 58.825413,49.888504 59.591885,49.962189 
	C59.959091,50.888721 59.995247,51.813862 59.409595,52.860222 
	C58.526703,52.966194 58.265610,52.950943 58.000191,52.538811 
	C57.982105,51.342598 57.968346,50.543266 57.954582,49.743935 
z"/>
<path fill="#BCB8B4" opacity="1.000000" stroke="none" 
	d="
M58.109848,59.494118 
	C58.147255,58.913773 58.295876,58.550690 58.964218,58.061523 
	C59.676853,57.970760 59.869770,58.006084 60.062683,58.041405 
	C59.905231,58.739666 59.747780,59.437931 59.309067,60.202194 
	C58.737370,60.113766 58.468456,59.928158 58.109848,59.494118 
z"/>
<path fill="#A49D96" opacity="1.000000" stroke="none" 
	d="
M60.239975,54.631832 
	C59.650444,54.725666 59.105042,54.672478 58.678867,54.289688 
	C59.066914,53.940075 59.335739,53.920063 59.604568,53.900047 
	C59.974586,53.925804 60.201099,54.120724 60.239975,54.631832 
z"/>
<path fill="#A49D96" opacity="1.000000" stroke="none" 
	d="
M60.033916,57.767960 
	C59.869770,58.006084 59.676853,57.970760 59.195232,57.874435 
	C58.990475,57.589275 59.074421,57.365112 59.354660,56.836765 
	C59.702354,56.853230 59.853752,57.173874 60.033916,57.767960 
z"/>
<path fill="#A08B81" opacity="1.000000" stroke="none" 
	d="
M59.585976,53.682175 
	C59.335739,53.920063 59.066914,53.940075 58.394279,53.983131 
	C57.990467,54.006176 57.997650,53.996101 57.995804,53.728401 
	C57.997475,53.285702 58.000996,53.110699 58.004520,52.935692 
	C58.265610,52.950943 58.526703,52.966194 59.179882,53.004219 
	C59.571972,53.026993 59.567387,53.464298 59.585976,53.682175 
z"/>
<path fill="#9D8D8A" opacity="1.000000" stroke="none" 
	d="
M18.001022,56.999825 
	C19.633558,58.293957 21.266096,59.588081 22.935266,61.267090 
	C17.919897,61.123802 12.867897,60.595638 7.411829,60.020973 
	C5.746474,58.301712 1.194865,58.576305 4.164834,54.307884 
	C4.503034,54.016285 4.870426,53.926586 5.227443,53.971031 
	C8.741857,54.317814 11.899252,54.620155 15.317286,55.106922 
	C16.385622,55.860844 17.193323,56.430336 18.001022,56.999825 
z"/>
<path fill="#473F3E" opacity="1.000000" stroke="none" 
	d="
M25.106022,60.184776 
	C24.833881,59.976223 24.561743,59.767666 24.442348,59.212830 
	C25.143671,58.276070 25.692251,57.685589 26.553137,57.011520 
	C27.561275,55.621925 28.257109,54.315914 29.204075,53.006252 
	C29.789915,52.997990 30.124626,52.993382 30.435188,53.344757 
	C30.609892,54.131855 30.808746,54.562965 30.874273,55.289864 
	C30.457077,56.365437 30.173210,57.145226 29.708435,58.025116 
	C29.466663,58.248333 29.322664,58.415611 29.360277,58.486420 
	C29.480787,58.713272 29.668535,58.904408 29.867504,59.332874 
	C29.904673,59.556423 30.022743,59.994011 29.957298,60.275383 
	C29.924290,60.746593 29.956730,60.936428 29.989170,61.126266 
	C28.896433,61.178272 27.803694,61.230274 26.248940,60.990570 
	C25.605122,60.467670 25.378155,60.296307 25.106022,60.184776 
z"/>
<path fill="#968D8B" opacity="1.000000" stroke="none" 
	d="
M29.919216,61.342953 
	C29.956730,60.936428 29.924290,60.746593 30.289143,60.266769 
	C31.129768,59.973862 31.573103,59.970940 32.381042,59.978996 
	C33.234516,60.010956 33.723392,60.031944 34.212265,60.052929 
	C34.180447,60.224567 34.148624,60.396206 33.782410,60.834991 
	C32.999569,61.277172 32.551121,61.452213 31.769512,61.737778 
	C30.971064,61.889851 30.505775,61.931396 30.040485,61.972939 
	C30.040485,61.972939 29.849262,61.559639 29.919216,61.342953 
z"/>
<path fill="#7A716B" opacity="1.000000" stroke="none" 
	d="
M32.102673,61.627254 
	C32.551121,61.452213 32.999569,61.277172 33.690147,61.080048 
	C34.214680,61.393070 34.497078,61.728180 34.848824,62.285286 
	C34.269062,62.534912 33.619953,62.562534 32.609718,62.332214 
	C32.248596,62.074265 32.102673,61.627254 32.102673,61.627254 
z"/>
<path fill="#ABB6BA" opacity="1.000000" stroke="none" 
	d="
M31.769512,61.737778 
	C32.102673,61.627254 32.248596,62.074265 32.284477,62.305477 
	C31.687080,62.531609 31.053801,62.526527 30.230503,62.247192 
	C30.505775,61.931396 30.971064,61.889851 31.769512,61.737778 
z"/>
<path fill="#9D8D8A" opacity="1.000000" stroke="none" 
	d="
M25.079044,60.413109 
	C25.378155,60.296307 25.605122,60.467670 25.845829,60.907257 
	C25.904734,61.115654 25.473181,61.246967 25.259933,61.174110 
	C25.046686,61.101250 25.052065,60.641441 25.079044,60.413109 
z"/>
<path fill="#494140" opacity="1.000000" stroke="none" 
	d="
M42.573948,51.016777 
	C42.573948,51.016777 42.509899,50.953232 42.327431,51.218758 
	C42.232674,51.649235 42.320381,51.814190 42.011467,52.074562 
	C41.783665,53.414619 41.952480,54.659252 42.121300,55.903889 
	C41.279278,57.451088 40.437256,58.998287 39.339214,60.741425 
	C39.083195,60.937370 39.073997,60.912415 39.037048,60.663063 
	C38.956921,60.250874 38.913746,60.088039 38.855679,59.584839 
	C38.268078,57.814285 37.695370,56.384090 37.074104,54.646095 
	C36.670071,53.904999 36.314590,53.471706 35.843079,52.951912 
	C35.727043,52.865410 35.543789,52.641346 35.703926,52.250126 
	C35.934616,51.586071 36.005173,51.313232 36.383026,50.993797 
	C37.460300,50.299706 38.230289,49.652203 39.000008,49.001907 
	C38.999733,48.999115 38.993656,48.994514 39.014858,49.279488 
	C39.516171,50.072506 39.996284,50.580544 41.014778,51.479309 
	C41.893417,51.585621 42.233685,51.301197 42.573948,51.016777 
z"/>
<path fill="#937B59" opacity="1.000000" stroke="none" 
	d="
M53.256065,61.830254 
	C51.942696,62.036110 50.891094,62.143776 49.443005,62.264755 
	C50.566444,61.360020 52.086365,60.441971 53.840057,60.022133 
	C54.259106,60.953884 54.444389,61.387421 54.629673,61.820953 
	C54.259060,61.791321 53.888443,61.761692 53.256065,61.830254 
z"/>
<path fill="#907E76" opacity="1.000000" stroke="none" 
	d="
M55.008690,52.997978 
	C55.004749,54.065247 55.000809,55.132515 54.998516,56.599766 
	C53.923714,56.995472 52.847260,56.991199 51.503407,56.692520 
	C51.519909,55.630894 51.803814,54.863670 52.385063,53.956757 
	C53.493210,53.472153 54.304008,53.127243 55.132088,52.857803 
	C55.149364,52.933270 55.008694,52.997978 55.008690,52.997978 
z"/>
<path fill="#B5A99B" opacity="1.000000" stroke="none" 
	d="
M47.192562,54.009129 
	C47.939804,54.261036 48.687046,54.512947 49.615826,55.132816 
	C49.523983,55.970047 49.250603,56.439320 48.977226,56.908588 
	C47.944519,56.913380 46.911816,56.918167 45.544960,56.627319 
	C45.871395,55.557491 46.531979,54.783310 47.192562,54.009129 
z"/>
<path fill="#AEA095" opacity="1.000000" stroke="none" 
	d="
M42.425743,55.936966 
	C41.952480,54.659252 41.783665,53.414619 42.347805,52.029522 
	C43.302811,51.846344 43.524864,51.803627 43.746914,51.760906 
	C44.364120,51.978989 44.981331,52.197071 45.478275,52.747944 
	C44.890255,54.028778 44.422501,54.976818 43.954750,55.924858 
	C43.546562,55.939919 43.138374,55.954979 42.425743,55.936966 
z"/>
<path fill="#6F625D" opacity="1.000000" stroke="none" 
	d="
M43.971649,56.193962 
	C44.422501,54.976818 44.890255,54.028778 45.696999,52.994251 
	C46.326599,53.120285 46.617214,53.332798 47.050194,53.777222 
	C46.531979,54.783310 45.871395,55.557491 45.157822,56.640846 
	C45.104832,56.950012 45.052570,56.968334 44.776157,56.980644 
	C44.499744,56.992954 44.001736,57.002163 44.001736,57.002163 
	C43.997337,56.822464 43.992943,56.642761 43.971649,56.193962 
z"/>
<path fill="#A3958B" opacity="1.000000" stroke="none" 
	d="
M49.307552,56.943047 
	C49.250603,56.439320 49.523983,55.970047 49.894310,55.245754 
	C50.108582,54.679943 50.299717,54.424358 51.052666,54.123695 
	C51.723019,54.047756 51.905369,54.072102 52.087719,54.096447 
	C51.803814,54.863670 51.519909,55.630894 51.100239,56.676151 
	C50.522274,56.961960 50.080074,56.969734 49.307552,56.943047 
z"/>
<path fill="#C9C6C6" opacity="1.000000" stroke="none" 
	d="
M54.953598,61.781479 
	C54.444389,61.387421 54.259106,60.953884 54.042873,60.283783 
	C54.319878,59.949173 54.591011,59.788864 54.978828,59.385269 
	C55.317097,59.216507 55.501858,59.228760 55.947159,59.339851 
	C55.897636,60.206459 55.587578,60.974236 54.953598,61.781479 
z"/>
<path fill="#908280" opacity="1.000000" stroke="none" 
	d="
M39.033302,61.674232 
	C38.438526,61.833473 37.843819,61.745392 37.385681,61.373352 
	C38.039501,61.030396 38.556751,60.971405 39.073997,60.912415 
	C39.073997,60.912415 39.083195,60.937370 39.075562,60.935425 
	C39.067932,60.933475 39.033367,61.426910 39.033302,61.674232 
z"/>
<path fill="#8A7D79" opacity="1.000000" stroke="none" 
	d="
M44.093163,57.170181 
	C44.001736,57.002163 44.499744,56.992954 44.748688,56.984116 
	C44.726616,57.096252 44.455605,57.217224 44.093163,57.170181 
z"/>
<path fill="#AEA095" opacity="1.000000" stroke="none" 
	d="
M15.056648,54.922493 
	C11.899252,54.620155 8.741857,54.317814 5.234742,53.635246 
	C4.765717,52.828068 4.646410,52.401115 4.527102,51.974163 
	C4.527102,51.974163 4.562225,51.621277 4.886641,51.263062 
	C5.484432,50.286160 5.757807,49.667473 6.314695,49.015343 
	C6.788398,48.974926 6.978589,48.967953 7.549857,48.952644 
	C8.937357,48.798424 9.943780,48.652542 11.040071,48.804031 
	C11.440516,49.331558 11.751092,49.561718 12.164526,50.074669 
	C13.045649,50.816177 13.823912,51.274891 14.602176,51.733604 
	C14.705013,51.946510 14.807850,52.159416 14.979097,53.016556 
	C15.050554,54.081356 15.053601,54.501926 15.056648,54.922493 
z"/>
<path fill="#9D8876" opacity="1.000000" stroke="none" 
	d="
M7.168779,48.960979 
	C6.978589,48.967953 6.788398,48.974926 5.883317,49.016945 
	C4.597629,49.130390 4.026830,49.208794 3.456032,49.287197 
	C3.377597,48.116383 3.299162,46.945568 3.782411,45.780628 
	C5.242929,46.187977 6.141763,46.589447 7.063942,47.319397 
	C7.114451,48.085571 7.141615,48.523277 7.168779,48.960979 
z"/>
<path fill="#E6D7C0" opacity="1.000000" stroke="none" 
	d="
M7.040596,46.990921 
	C6.141763,46.589447 5.242929,46.187977 4.057710,45.535248 
	C3.771323,45.283989 3.805419,45.313572 3.779119,45.299080 
	C4.044178,45.061394 4.335536,44.838196 4.742064,44.364838 
	C5.633806,44.088020 6.410378,44.061367 7.579552,44.373390 
	C7.661634,45.471687 7.351115,46.231304 7.040596,46.990921 
z"/>
<path fill="#F1F1F1" opacity="1.000000" stroke="none" 
	d="
M4.269897,52.044594 
	C4.646410,52.401115 4.765717,52.828068 4.877725,53.590805 
	C4.870426,53.926586 4.503034,54.016285 4.315393,54.038567 
	C4.089399,53.412239 4.051045,52.763630 4.269897,52.044594 
z"/>
<path fill="#A3958B" opacity="1.000000" stroke="none" 
	d="
M3.568743,49.553253 
	C4.026830,49.208794 4.597629,49.130390 5.599805,49.050392 
	C5.757807,49.667473 5.484432,50.286160 4.908007,51.087036 
	C4.297123,50.785919 3.989289,50.302612 3.568743,49.553253 
z"/>
<path fill="#908280" opacity="1.000000" stroke="none" 
	d="
M37.122665,54.953903 
	C37.695370,56.384090 38.268078,57.814285 38.455193,59.603127 
	C37.253010,59.992641 36.436417,60.023502 35.619827,60.054363 
	C35.619827,60.054363 35.217331,60.143707 34.975071,59.828594 
	C34.151318,59.015957 33.569828,58.518429 33.180679,57.752190 
	C34.622902,56.640282 35.872784,55.797092 37.122665,54.953903 
z"/>
<path fill="#A3A19C" opacity="1.000000" stroke="none" 
	d="
M32.988335,58.020905 
	C33.569828,58.518429 34.151318,59.015957 34.770164,59.805977 
	C34.807522,60.098476 34.507046,60.076977 34.359657,60.064953 
	C33.723392,60.031944 33.234516,60.010956 32.484722,59.727188 
	C32.478645,58.983238 32.733490,58.502071 32.988335,58.020905 
z"/>
<path fill="#746966" opacity="1.000000" stroke="none" 
	d="
M35.754868,60.308167 
	C36.436417,60.023502 37.253010,59.992641 38.470085,59.943489 
	C38.913746,60.088039 38.956921,60.250874 39.037048,60.663063 
	C38.556751,60.971405 38.039501,61.030396 37.142464,61.189354 
	C36.471748,61.046871 36.180824,60.804420 35.754868,60.308167 
z"/>
<path fill="#826454" opacity="1.000000" stroke="none" 
	d="
M26.269470,44.160896 
	C25.989218,43.552288 26.041735,43.111752 26.438095,42.312069 
	C27.206142,41.628185 27.630346,41.303448 28.372612,40.941162 
	C29.518410,40.243031 30.346144,39.582451 31.364712,39.027569 
	C31.796076,39.321793 31.939344,39.567097 31.985353,39.869190 
	C31.992861,40.349617 32.000370,40.830044 31.724327,41.885414 
	C31.267265,43.353874 31.093756,44.247395 30.661057,45.339813 
	C29.656639,46.733219 28.911413,47.927715 28.166183,49.122211 
	C27.644869,47.524464 27.123554,45.926712 26.269470,44.160896 
z"/>
<path fill="#7A716B" opacity="1.000000" stroke="none" 
	d="
M36.906372,46.127663 
	C36.940933,46.542858 36.975498,46.958057 36.711815,47.727966 
	C35.954960,48.720871 35.496353,49.359062 34.761459,50.193848 
	C34.295677,51.036938 34.106190,51.683434 33.568958,52.371040 
	C32.526131,52.344543 31.831039,52.276932 31.105679,51.796211 
	C31.152210,50.560516 31.229015,49.737934 31.658083,48.920662 
	C32.684948,47.936646 33.359547,46.947311 34.034149,45.957981 
	C34.476536,45.987320 34.918922,46.016663 35.914154,46.063759 
	C36.466999,46.081516 36.906372,46.127663 36.906372,46.127663 
z"/>
<path fill="#937156" opacity="1.000000" stroke="none" 
	d="
M36.059723,36.890850 
	C35.792225,37.390396 35.524723,37.889942 35.149117,38.650902 
	C34.850056,38.916042 34.659107,38.919773 34.036987,38.664192 
	C33.064705,37.933651 32.523594,37.462418 32.026283,36.764801 
	C32.070087,36.538414 32.102474,36.078320 32.231865,35.857224 
	C32.627468,35.426746 32.893688,35.217373 33.342087,35.001007 
	C33.524269,34.994019 33.888874,34.998421 34.159676,35.118416 
	C34.973560,35.789227 35.516640,36.340038 36.059723,36.890850 
z"/>
<path fill="#494343" opacity="1.000000" stroke="none" 
	d="
M42.444889,46.043137 
	C42.524086,47.344498 42.295246,48.678169 41.703186,50.350685 
	C41.339970,50.689526 41.196407,50.665905 41.060329,50.316143 
	C40.280720,49.642426 39.637188,49.318470 38.993656,48.994514 
	C38.993656,48.994514 38.999733,48.999115 38.997849,48.754578 
	C38.995964,48.510040 38.996124,48.015469 38.996124,48.015472 
	C40.043034,47.368793 41.089943,46.722118 42.444889,46.043137 
z"/>
<path fill="#91827D" opacity="1.000000" stroke="none" 
	d="
M33.924686,45.739685 
	C33.359547,46.947311 32.684948,47.936646 31.588478,48.612617 
	C31.171011,47.879997 31.175413,47.460739 31.415611,46.887253 
	C32.106552,46.146709 32.561703,45.560398 33.016850,44.974083 
	C33.333462,45.082878 33.599586,45.265312 33.924686,45.739685 
z"/>
<path fill="#5B4C48" opacity="1.000000" stroke="none" 
	d="
M38.673943,48.007587 
	C38.996124,48.015469 38.995964,48.510040 38.998123,48.757370 
	C38.230289,49.652203 37.460300,50.299706 36.260780,50.771442 
	C35.566742,50.396202 35.302246,50.196728 35.037746,49.997250 
	C35.496353,49.359062 35.954960,48.720871 36.739101,48.039284 
	C37.493675,47.997158 37.922718,47.998432 38.673943,48.007587 
z"/>
<path fill="#8D7468" opacity="1.000000" stroke="none" 
	d="
M32.986412,44.658325 
	C32.561703,45.560398 32.106552,46.146709 31.339874,46.574238 
	C30.992311,45.990604 30.956278,45.565758 30.920246,45.140911 
	C31.093756,44.247395 31.267265,43.353874 31.707001,42.245369 
	C32.300812,42.801109 32.628391,43.571838 32.986412,44.658325 
z"/>
<path fill="#AA8971" opacity="1.000000" stroke="none" 
	d="
M31.982477,36.991184 
	C32.523594,37.462418 33.064705,37.933651 33.752029,38.634769 
	C33.440964,39.168171 32.983692,39.471687 32.255886,39.822197 
	C31.939344,39.567097 31.796076,39.321793 31.325893,38.733952 
	C31.087435,38.136993 31.078630,37.939354 31.169598,37.565559 
	C31.467485,37.185883 31.705187,37.053143 31.982477,36.991184 
z"/>
<path fill="#5B4C48" opacity="1.000000" stroke="none" 
	d="
M36.863312,45.931900 
	C36.906372,46.127663 36.466999,46.081516 36.246635,46.070053 
	C36.290928,45.951099 36.555588,45.843616 36.863312,45.931900 
z"/>
<path fill="#6D5650" opacity="1.000000" stroke="none" 
	d="
M35.684067,15.877155 
	C36.327686,17.208509 36.980988,18.407452 36.986229,19.609222 
	C36.991005,20.704300 36.292694,21.802444 35.234463,22.812527 
	C34.074699,22.729313 33.584763,22.732813 33.076496,22.633530 
	C33.058170,22.530746 32.988865,22.327549 33.273281,22.185532 
	C33.369022,21.571301 33.180347,21.099087 33.030369,20.324390 
	C32.761524,19.322674 32.453987,18.623436 31.939171,17.858669 
	C31.731886,17.793139 31.325981,17.637302 31.295189,17.365135 
	C31.239254,16.730024 31.214113,16.367083 31.412281,15.878876 
	C31.762953,15.439306 31.890316,15.125001 32.017677,14.810696 
	C33.148911,15.122457 34.280136,15.434216 35.684067,15.877155 
z"/>
<path fill="#9C8173" opacity="1.000000" stroke="none" 
	d="
M31.678795,14.854771 
	C31.890316,15.125001 31.762953,15.439306 31.084496,15.874216 
	C30.318649,15.961595 30.103897,15.928367 29.928734,15.662840 
	C29.968323,15.430540 30.030878,14.963411 30.030878,14.963411 
	C30.030878,14.963411 30.006207,14.994669 29.992689,15.009899 
	C30.432751,14.983035 30.886332,14.940941 31.678795,14.854771 
z"/>
<path fill="#9A735B" opacity="1.000000" stroke="none" 
	d="
M27.937096,12.746727 
	C27.775019,12.776933 27.489574,12.575269 27.112652,12.120470 
	C27.285358,12.083177 27.549543,12.299017 27.937096,12.746727 
z"/>
<path fill="#BDA38B" opacity="1.000000" stroke="none" 
	d="
M33.094822,22.736313 
	C33.584763,22.732813 34.074699,22.729313 34.909069,22.856913 
	C35.204174,23.174105 35.154850,23.360197 34.754082,23.983374 
	C34.307789,24.992582 34.212944,25.564711 33.773956,26.091320 
	C32.974106,25.991947 32.518402,25.938089 32.047836,25.531628 
	C32.000801,24.474051 31.968620,23.769081 32.237442,23.022461 
	C32.723900,22.899309 32.909363,22.817810 33.094822,22.736313 
z"/>
<path fill="#CBAF9A" opacity="1.000000" stroke="none" 
	d="
M35.829735,26.090189 
	C35.885216,27.014748 35.685169,27.875420 35.148392,28.650013 
	C34.483093,28.322756 34.154526,28.081579 33.948425,27.481022 
	C34.135830,26.876644 34.200764,26.631645 34.292862,26.432100 
	C34.320030,26.477554 34.265556,26.316071 34.454948,26.216192 
	C34.644344,26.116314 35.049618,25.977976 35.049618,25.977976 
	C35.224480,25.994085 35.399338,26.010195 35.829735,26.090189 
z"/>
<path fill="#E6D7C0" opacity="1.000000" stroke="none" 
	d="
M34.118099,26.136837 
	C34.212944,25.564711 34.307789,24.992582 34.643509,24.250145 
	C34.917145,24.501902 34.949898,24.923969 35.016136,25.662006 
	C35.049618,25.977976 34.644344,26.116314 34.463680,26.214691 
	C34.283016,26.313068 34.280785,26.347229 34.239388,26.295191 
	C34.197990,26.243153 34.118099,26.136837 34.118099,26.136837 
z"/>
<path fill="#A69B92" opacity="1.000000" stroke="none" 
	d="
M26.240829,57.095108 
	C25.692251,57.685589 25.143671,58.276070 24.299274,58.998817 
	C23.708435,57.670845 23.413416,56.210606 23.055279,54.383598 
	C23.745947,54.041641 24.499733,54.066452 25.666349,54.434174 
	C26.133062,55.549759 26.186945,56.322433 26.240829,57.095108 
z"/>
<path fill="#6E5851" opacity="1.000000" stroke="none" 
	d="
M15.317286,55.106922 
	C15.053601,54.501926 15.050554,54.081356 15.101449,53.349442 
	C15.837081,53.031075 16.518772,53.024059 17.539738,53.034203 
	C18.091946,53.598518 18.304882,54.145672 18.754601,54.874428 
	C18.727028,55.533382 18.462671,56.010742 18.099670,56.743961 
	C17.193323,56.430336 16.385622,55.860844 15.317286,55.106922 
z"/>
<path fill="#52433F" opacity="1.000000" stroke="none" 
	d="
M30.661057,45.339813 
	C30.956278,45.565758 30.992311,45.990604 31.104080,46.728466 
	C31.175413,47.460739 31.171011,47.879997 31.236214,48.607304 
	C31.229015,49.737934 31.152210,50.560516 30.955353,52.007401 
	C30.709976,52.750729 30.584656,52.869747 30.459335,52.988770 
	C30.124626,52.993382 29.789915,52.997990 29.014143,52.889397 
	C28.343187,52.577881 28.171690,52.337849 28.058590,52.056091 
	C28.067385,51.320732 28.076180,50.585373 28.125580,49.486115 
	C28.911413,47.927715 29.656639,46.733219 30.661057,45.339813 
z"/>
<path fill="#73584E" opacity="1.000000" stroke="none" 
	d="
M27.715982,52.062706 
	C28.171690,52.337849 28.343187,52.577881 28.763012,52.893044 
	C28.257109,54.315914 27.561275,55.621925 26.553135,57.011520 
	C26.186945,56.322433 26.133062,55.549759 26.041302,54.390274 
	C26.022337,53.816315 26.041252,53.629166 26.050926,53.159866 
	C26.041685,52.877708 26.052601,52.590446 26.039181,52.451401 
	C26.474964,52.231342 26.924170,52.150330 27.715982,52.062706 
z"/>
<path fill="#785E51" opacity="1.000000" stroke="none" 
	d="
M33.888874,34.998421 
	C33.888874,34.998421 33.524269,34.994019 33.282845,34.744244 
	C33.033760,34.319023 33.026100,34.143574 32.979012,33.773407 
	C32.835052,33.329205 32.673222,33.125195 32.380917,32.928421 
	C32.307743,32.890194 32.143898,32.910694 32.213051,32.682964 
	C32.282204,32.455235 32.431458,32.003250 32.582588,31.832031 
	C32.862743,31.226601 32.991760,30.792387 33.161858,30.320539 
	C33.202930,30.282906 33.272259,30.195679 33.408905,30.213634 
	C33.545547,30.231592 33.819302,30.199389 34.112671,30.148235 
	C34.600967,30.059441 34.795898,30.021803 34.990826,29.984167 
	C35.434818,30.105972 35.878811,30.227779 36.650581,30.467754 
	C36.782352,30.742155 36.721275,30.940155 36.606773,31.390026 
	C36.253620,31.689095 36.088818,31.778061 35.681866,32.065277 
	C34.922771,33.175159 34.405823,34.086792 33.888874,34.998421 
z"/>
<path fill="#AF9A82" opacity="1.000000" stroke="none" 
	d="
M34.159676,35.118416 
	C34.405823,34.086792 34.922771,33.175159 35.708832,32.344688 
	C35.990940,32.611816 36.003933,32.797783 36.016930,32.983746 
	C36.573631,33.497799 37.130333,34.011852 37.848083,34.767143 
	C37.531860,35.568516 37.054577,36.128654 36.318512,36.789822 
	C35.516640,36.340038 34.973560,35.789227 34.159676,35.118416 
z"/>
<path fill="#B5A99B" opacity="1.000000" stroke="none" 
	d="
M36.286774,32.815773 
	C36.003933,32.797783 35.990940,32.611816 35.950981,32.146439 
	C36.088818,31.778061 36.253620,31.689095 36.691490,31.532398 
	C36.828579,31.859047 36.692596,32.253426 36.286774,32.815773 
z"/>
<path fill="#BCA595" opacity="1.000000" stroke="none" 
	d="
M35.026077,29.766361 
	C34.795898,30.021803 34.600967,30.059441 34.089882,29.984489 
	C33.773727,29.871897 33.405659,29.771818 33.405659,29.771818 
	C33.405659,29.771818 33.272259,30.195679 33.272259,30.195679 
	C33.272259,30.195679 33.202930,30.282906 32.893986,30.187939 
	C32.390335,30.056236 32.195625,30.019505 31.994938,29.695036 
	C31.959888,29.026205 31.930822,28.645107 32.143684,28.139156 
	C32.555801,27.951220 32.725986,27.888140 33.128212,27.853191 
	C33.360260,27.881321 33.825958,27.840403 33.825958,27.840403 
	C34.154526,28.081579 34.483093,28.322756 34.957863,28.836639 
	C35.104065,29.109344 35.061325,29.548553 35.026077,29.766361 
z"/>
<path fill="#8C7162" opacity="1.000000" stroke="none" 
	d="
M23.566397,37.730209 
	C23.293161,37.638081 23.354975,37.373959 23.424110,37.255669 
	C23.843313,36.806431 24.193378,36.475483 25.068920,36.025146 
	C26.027164,35.880424 26.459934,35.855087 27.225628,35.860893 
	C28.384106,35.590446 29.209658,35.288860 30.034685,35.231510 
	C30.034161,35.475750 30.061882,35.963451 30.013620,36.234638 
	C29.939308,36.687603 29.913260,36.869381 29.635361,37.040367 
	C29.215601,37.022518 29.047693,37.015453 28.572134,37.043510 
	C27.226492,37.680046 26.188501,38.281456 25.150509,38.882866 
	C24.713551,38.529358 24.276590,38.175846 23.566397,37.730209 
z"/>
<path fill="#C6B5A4" opacity="1.000000" stroke="none" 
	d="
M26.892702,35.829754 
	C26.459934,35.855087 26.027164,35.880424 25.268747,35.884727 
	C24.964571,34.757996 24.986044,33.652294 25.035143,32.126755 
	C25.397575,31.836941 25.666290,31.753662 26.226444,31.256359 
	C26.583975,31.055641 27.067835,31.093493 27.046608,31.319439 
	C27.025379,31.545385 27.000912,32.000057 27.000227,32.250015 
	C26.999542,32.499977 27.001760,32.999897 27.010021,33.355553 
	C26.976419,34.417393 26.934561,35.123573 26.892702,35.829754 
z"/>
<path fill="#F6EACF" opacity="1.000000" stroke="none" 
	d="
M32.896168,27.825062 
	C32.725986,27.888140 32.555801,27.951220 31.929543,28.065521 
	C31.473473,28.116743 31.079725,27.893221 30.911148,27.651600 
	C30.180988,27.292610 29.619406,27.175241 29.000313,26.996529 
	C28.942806,26.935188 28.832550,26.808208 28.832550,26.808208 
	C28.642151,25.111765 28.451750,23.415319 28.085127,21.054352 
	C27.939369,19.931387 27.969835,19.472948 28.330278,19.014299 
	C29.099691,19.032930 29.539127,19.051769 29.975853,19.035574 
	C29.973145,19.000538 29.931402,19.057081 29.964279,19.352226 
	C30.311594,20.101345 30.626028,20.555321 30.999361,21.295250 
	C31.350986,22.075506 31.643713,22.569809 31.936440,23.064112 
	C31.968620,23.769081 32.000801,24.474051 32.110229,25.792400 
	C32.423706,26.878876 32.659939,27.351969 32.896168,27.825062 
z"/>
<path fill="#D0B5A0" opacity="1.000000" stroke="none" 
	d="
M28.000299,19.014507 
	C27.969835,19.472948 27.939369,19.931387 27.892776,20.734921 
	C27.111641,21.361814 26.346638,21.643614 25.271133,21.939762 
	C24.979410,21.502680 24.998190,21.051249 25.042412,20.259903 
	C25.837986,19.300934 26.608118,18.681879 27.685143,18.031837 
	C27.992037,18.000851 28.007833,17.986021 28.004257,18.239763 
	C28.000553,18.667173 28.000425,18.840841 28.000299,19.014507 
z"/>
<path fill="#F6EACF" opacity="1.000000" stroke="none" 
	d="
M26.109308,29.029350 
	C26.104498,28.827976 26.099688,28.626602 26.118294,28.123537 
	C26.847635,27.505167 27.553558,27.188488 28.546017,26.840008 
	C28.832550,26.808208 28.942806,26.935188 28.974606,27.286003 
	C28.699524,28.108288 28.392643,28.579754 27.755878,29.037891 
	C26.987099,29.026157 26.548204,29.027754 26.109308,29.029350 
z"/>
<path fill="#B4A494" opacity="1.000000" stroke="none" 
	d="
M58.000191,52.538811 
	C58.000996,53.110699 57.997475,53.285702 57.997299,53.723068 
	C57.434105,53.668705 56.867569,53.351982 56.076904,52.564186 
	C55.665760,51.116734 55.478737,50.140350 55.291714,49.163967 
	C55.878593,49.232838 56.465473,49.301708 57.488430,49.480835 
	C57.924507,49.591087 57.932652,49.690098 57.943619,49.717018 
	C57.968346,50.543266 57.982105,51.342598 58.000191,52.538811 
z"/>
<path fill="#F3E9D6" opacity="1.000000" stroke="none" 
	d="
M54.949631,49.123375 
	C55.478737,50.140350 55.665760,51.116734 55.797504,52.395538 
	C55.742229,52.697960 55.363762,52.819645 55.186226,52.908813 
	C55.008694,52.997978 55.149364,52.933270 54.997250,52.666054 
	C54.605301,52.189945 54.338585,52.024338 54.044983,51.902012 
	C54.019131,51.204971 53.993279,50.507927 53.943527,49.465790 
	C54.148933,49.108055 54.378242,49.095421 54.949631,49.123375 
z"/>
<path fill="#B4A494" opacity="1.000000" stroke="none" 
	d="
M53.679146,51.960808 
	C54.338585,52.024338 54.605301,52.189945 54.979973,52.590584 
	C54.304008,53.127243 53.493210,53.472153 52.385063,53.956757 
	C51.905369,54.072102 51.723019,54.047756 51.265045,54.007767 
	C51.010334,53.589848 51.031239,53.187572 51.080841,52.487976 
	C51.844128,52.133636 52.578716,52.076618 53.679146,51.960808 
z"/>
<path fill="#F1F1F1" opacity="1.000000" stroke="none" 
	d="
M43.801464,51.549164 
	C43.524864,51.803627 43.302811,51.846344 42.744423,51.934101 
	C42.320381,51.814190 42.232674,51.649235 42.290855,51.245159 
	C42.691143,50.916637 42.945545,50.827236 43.594254,50.829262 
	C43.988560,50.920692 43.856014,51.337425 43.801464,51.549164 
z"/>
<path fill="#F4F0E2" opacity="1.000000" stroke="none" 
	d="
M7.063942,47.319397 
	C7.351115,46.231304 7.661634,45.471687 7.966039,44.383484 
	C7.971589,43.881413 7.983253,43.707928 8.276617,43.057384 
	C8.749297,41.439091 8.940275,40.297855 9.131252,39.156620 
	C9.545578,39.114658 9.959904,39.072693 10.686476,39.022675 
	C10.994467,39.762192 10.990211,40.509766 10.975647,41.631447 
	C11.603271,42.818504 12.241203,43.631462 12.926524,44.958775 
	C12.973913,45.473133 12.992555,45.936661 12.708776,45.928158 
	C11.723590,45.927483 11.022180,45.935310 10.320770,45.943134 
	C10.516336,46.322792 10.711903,46.702454 10.912664,47.290985 
	C10.917861,47.499863 10.962502,47.915352 10.942472,48.062828 
	C10.922442,48.210300 10.950203,48.506660 10.950203,48.506660 
	C9.943780,48.652542 8.937357,48.798424 7.549856,48.952644 
	C7.141615,48.523277 7.114451,48.085571 7.063942,47.319397 
z"/>
<path fill="#D9CFB9" opacity="1.000000" stroke="none" 
	d="
M8.825167,39.122215 
	C8.940275,40.297855 8.749297,41.439091 8.283655,42.796661 
	C7.988297,41.974518 7.967603,40.936043 7.925646,39.512897 
	C8.109282,39.114758 8.314182,39.101284 8.825167,39.122215 
z"/>
<path fill="#DDDAD3" opacity="1.000000" stroke="none" 
	d="
M12.992556,45.936661 
	C12.992555,45.936661 12.973913,45.473133 12.970230,45.241322 
	C13.253187,45.007412 13.539818,45.004597 14.030551,44.995583 
	C14.385787,45.150188 14.536914,45.310276 14.872598,45.744583 
	C15.119472,46.779491 15.181787,47.540176 15.353516,48.667183 
	C15.252436,49.710289 15.041943,50.387077 14.716813,51.398735 
	C13.823912,51.274891 13.045649,50.816177 12.118725,49.796013 
	C11.634212,48.794823 11.298357,48.355087 10.962502,47.915352 
	C10.962502,47.915352 10.917861,47.499863 11.227712,47.245041 
	C12.022560,46.639034 12.507559,46.287849 12.992556,45.936661 
z"/>
<path fill="#CBAF9A" opacity="1.000000" stroke="none" 
	d="
M29.889143,15.895139 
	C30.103897,15.928367 30.318649,15.961595 30.861187,15.999481 
	C31.214113,16.367083 31.239254,16.730024 31.113831,17.654198 
	C30.619314,18.495979 30.275358,18.776531 29.931402,19.057083 
	C29.931402,19.057081 29.973145,19.000538 29.961895,18.731667 
	C29.653908,17.966696 29.357174,17.470592 29.060440,16.974489 
	C29.060440,16.974489 29.044598,16.475811 29.250389,16.211113 
	C29.456181,15.946415 29.889143,15.895139 29.889143,15.895139 
z"/>
<path fill="#AF9787" opacity="1.000000" stroke="none" 
	d="
M28.939758,17.191500 
	C29.357174,17.470592 29.653908,17.966696 29.964603,18.766705 
	C29.539127,19.051769 29.099691,19.032930 28.330278,19.014299 
	C28.000425,18.840841 28.000553,18.667173 28.012367,18.232973 
	C28.356127,17.879036 28.621136,17.691059 28.939758,17.191500 
z"/>
<path fill="#4E4442" opacity="1.000000" stroke="none" 
	d="
M29.928734,15.662840 
	C29.889143,15.895139 29.456181,15.946415 29.238976,15.961909 
	C29.105528,15.639118 29.292416,15.373343 29.806656,15.071745 
	C30.030878,14.963411 29.968323,15.430540 29.928734,15.662840 
z"/>
<path fill="#F1F1F1" opacity="1.000000" stroke="none" 
	d="
M41.196407,50.665905 
	C41.196407,50.665905 41.339970,50.689526 41.393532,50.641445 
	C41.639786,50.650990 41.832474,50.708611 42.299553,50.891502 
	C42.233685,51.301197 41.893417,51.585621 41.235317,51.442551 
	C40.917480,51.015057 41.196407,50.665905 41.196407,50.665905 
z"/>
<path fill="#E5D5C5" opacity="1.000000" stroke="none" 
	d="
M26.078583,29.367769 
	C26.548204,29.027754 26.987099,29.026157 27.750515,29.294899 
	C28.080667,29.736795 28.086300,29.908350 28.034372,30.300274 
	C27.976814,30.520645 27.921928,30.972853 27.707268,30.994968 
	C27.492607,31.017082 27.067835,31.093493 27.067835,31.093493 
	C27.067835,31.093493 26.583975,31.055641 26.341921,31.060356 
	C26.082531,30.612112 26.065195,30.159149 26.078583,29.367769 
z"/>
<path fill="#AA8971" opacity="1.000000" stroke="none" 
	d="
M25.081707,39.172112 
	C26.188501,38.281456 27.226492,37.680046 28.594975,37.388107 
	C28.635160,38.791290 28.344856,39.884998 28.054550,40.978706 
	C27.630346,41.303448 27.206142,41.628185 26.507233,41.986458 
	C26.232525,42.019993 25.844910,41.970440 25.652197,41.971748 
	C25.348707,41.543907 25.237928,41.114750 25.030365,40.368141 
	C24.960022,39.854244 24.986462,39.657803 25.081707,39.172112 
z"/>
<path fill="#A49D96" opacity="1.000000" stroke="none" 
	d="
M33.180679,57.752190 
	C32.733490,58.502071 32.478645,58.983238 32.120117,59.716209 
	C31.573103,59.970940 31.129768,59.973862 30.354588,59.985397 
	C30.022743,59.994011 29.904673,59.556423 29.929140,59.038631 
	C29.932188,58.322231 29.910767,58.123623 29.889343,57.925014 
	C30.173210,57.145226 30.457077,56.365437 31.202129,55.172676 
	C33.095245,54.185944 34.527176,53.612179 35.959106,53.038414 
	C36.314590,53.471706 36.670071,53.904999 37.074104,54.646095 
	C35.872784,55.797092 34.622902,56.640282 33.180679,57.752190 
z"/>
<path fill="#F4ECE3" opacity="1.000000" stroke="none" 
	d="
M35.843075,52.951912 
	C34.527176,53.612179 33.095245,54.185944 31.335457,54.876892 
	C30.808746,54.562965 30.609892,54.131855 30.435188,53.344757 
	C30.584656,52.869747 30.709976,52.750729 30.985624,52.420517 
	C31.831039,52.276932 32.526131,52.344543 33.824844,52.490433 
	C34.800240,52.592926 35.172016,52.617138 35.543789,52.641346 
	C35.543789,52.641346 35.727043,52.865410 35.843075,52.951912 
z"/>
<path fill="#7A716B" opacity="1.000000" stroke="none" 
	d="
M29.708435,58.025116 
	C29.910767,58.123623 29.932188,58.322231 29.891972,58.815083 
	C29.668535,58.904408 29.480787,58.713272 29.360277,58.486420 
	C29.322664,58.415611 29.466663,58.248333 29.708435,58.025116 
z"/>
<path fill="#6E5D58" opacity="1.000000" stroke="none" 
	d="
M35.703926,52.250126 
	C35.172016,52.617138 34.800240,52.592926 34.172585,52.449318 
	C34.106190,51.683434 34.295677,51.036938 34.761459,50.193848 
	C35.302246,50.196728 35.566742,50.396202 35.953487,50.818031 
	C36.005173,51.313232 35.934616,51.586071 35.703926,52.250126 
z"/>
<path fill="#645857" opacity="1.000000" stroke="none" 
	d="
M41.060329,50.316143 
	C41.196407,50.665905 40.917480,51.015057 40.696938,51.051819 
	C39.996284,50.580544 39.516171,50.072506 39.014858,49.279488 
	C39.637188,49.318470 40.280720,49.642426 41.060329,50.316143 
z"/>
<path fill="#DCD6C6" opacity="1.000000" stroke="none" 
	d="
M10.942472,48.062828 
	C11.298357,48.355087 11.634212,48.794823 12.015867,49.513214 
	C11.751092,49.561718 11.440516,49.331558 11.040071,48.804031 
	C10.950203,48.506660 10.922442,48.210300 10.942472,48.062828 
z"/>
<path fill="#765A4F" opacity="1.000000" stroke="none" 
	d="
M28.372612,40.941162 
	C28.344856,39.884998 28.635160,38.791290 28.902626,37.352985 
	C29.047693,37.015453 29.215601,37.022518 29.787304,37.227440 
	C30.432037,37.675125 30.724945,37.780594 31.069824,37.741718 
	C31.078630,37.939354 31.087435,38.136993 31.135059,38.628250 
	C30.346144,39.582451 29.518410,40.243031 28.372612,40.941162 
z"/>
<path fill="#CBB89D" opacity="1.000000" stroke="none" 
	d="
M30.061882,35.963455 
	C30.061882,35.963451 30.034161,35.475750 30.275200,35.072578 
	C30.657799,34.126102 30.799358,33.582802 31.242352,33.013718 
	C31.743820,32.962193 31.943859,32.936443 32.143898,32.910694 
	C32.143898,32.910694 32.307743,32.890194 32.362160,33.139606 
	C32.539783,33.662407 32.740402,33.855438 33.018436,33.968121 
	C33.026100,34.143574 33.033760,34.319023 33.100662,34.751232 
	C32.893688,35.217373 32.627468,35.426746 31.890839,35.830269 
	C30.967577,36.004097 30.514730,35.983776 30.061882,35.963455 
z"/>
<path fill="#BCA17C" opacity="1.000000" stroke="none" 
	d="
M30.013620,36.234642 
	C30.514730,35.983776 30.967577,36.004097 31.761450,36.051369 
	C32.102474,36.078320 32.070087,36.538414 32.026283,36.764801 
	C31.705187,37.053143 31.467485,37.185883 31.169598,37.565559 
	C30.724945,37.780594 30.432037,37.675125 30.039158,37.238228 
	C29.913260,36.869381 29.939308,36.687603 30.013620,36.234642 
z"/>
<path fill="#8C6D60" opacity="1.000000" stroke="none" 
	d="
M32.237442,23.022461 
	C31.643713,22.569809 31.350986,22.075506 31.295158,21.110144 
	C31.736856,19.734121 31.941654,18.829159 32.146454,17.924198 
	C32.453987,18.623436 32.761524,19.322674 33.014992,20.751049 
	C32.970238,21.762640 32.979553,22.045095 32.988865,22.327549 
	C32.988865,22.327549 33.058170,22.530746 33.076496,22.633530 
	C32.909363,22.817810 32.723900,22.899309 32.237442,23.022461 
z"/>
<path fill="#B79B8A" opacity="1.000000" stroke="none" 
	d="
M31.939171,17.858669 
	C31.941654,18.829159 31.736856,19.734121 31.236259,20.824190 
	C30.626028,20.555321 30.311594,20.101345 29.964279,19.352226 
	C30.275358,18.776531 30.619314,18.495979 31.144625,17.926365 
	C31.325981,17.637302 31.731886,17.793139 31.939171,17.858669 
z"/>
<path fill="#B8A598" opacity="1.000000" stroke="none" 
	d="
M33.273281,22.185532 
	C32.979553,22.045095 32.970238,21.762640 32.976303,21.053528 
	C33.180347,21.099087 33.369022,21.571301 33.273281,22.185532 
z"/>
<path fill="#E6D7C0" opacity="1.000000" stroke="none" 
	d="
M33.128212,27.853191 
	C32.659939,27.351969 32.423706,26.878876 32.125084,26.145008 
	C32.518402,25.938089 32.974106,25.991947 33.773956,26.091320 
	C34.118099,26.136837 34.197990,26.243153 34.234413,26.308249 
	C34.270840,26.373344 34.265697,26.386646 34.265697,26.386646 
	C34.200764,26.631645 34.135830,26.876644 33.948425,27.481022 
	C33.825958,27.840403 33.360260,27.881321 33.128212,27.853191 
z"/>
<path fill="#F9F9F9" opacity="1.000000" stroke="none" 
	d="
M34.292862,26.432100 
	C34.265697,26.386646 34.270840,26.373344 34.275810,26.360287 
	C34.280785,26.347229 34.283016,26.313068 34.274284,26.314569 
	C34.265556,26.316071 34.320030,26.477554 34.292862,26.432100 
z"/>
<path fill="#CBB6A2" opacity="1.000000" stroke="none" 
	d="
M32.213051,32.682964 
	C31.943859,32.936443 31.743820,32.962193 30.993759,33.101624 
	C29.629082,33.143528 28.814428,33.071754 28.000269,32.750061 
	C28.000765,32.500145 28.000628,32.000294 28.220772,31.893923 
	C28.715870,31.589863 28.904718,31.329668 29.262333,30.995626 
	C29.687115,30.975395 29.857021,30.966507 30.356285,30.972853 
	C31.125267,30.985991 31.564894,30.983892 32.093483,31.244587 
	C32.265453,31.672668 32.348454,31.837959 32.431458,32.003250 
	C32.431458,32.003250 32.282204,32.455235 32.213051,32.682964 
z"/>
<path fill="#8E796E" opacity="1.000000" stroke="none" 
	d="
M32.582588,31.832031 
	C32.348454,31.837959 32.265453,31.672668 32.092651,30.994911 
	C32.002850,30.482445 32.000919,29.982771 32.000919,29.982771 
	C32.195625,30.019505 32.390335,30.056236 32.852913,30.225571 
	C32.991760,30.792387 32.862743,31.226601 32.582588,31.832031 
z"/>
<path fill="#A38879" opacity="1.000000" stroke="none" 
	d="
M33.408905,30.213634 
	C33.272259,30.195679 33.405659,29.771818 33.405659,29.771818 
	C33.405659,29.771818 33.773727,29.871897 33.796516,30.035643 
	C33.819302,30.199389 33.545547,30.231592 33.408905,30.213634 
z"/>
<path fill="#8E796E" opacity="1.000000" stroke="none" 
	d="
M32.979012,33.773407 
	C32.740402,33.855438 32.539783,33.662407 32.435333,33.177834 
	C32.673222,33.125195 32.835052,33.329205 32.979012,33.773407 
z"/>
<path fill="#A38879" opacity="1.000000" stroke="none" 
	d="
M31.994938,29.695036 
	C32.000919,29.982771 32.002850,30.482445 32.003685,30.732121 
	C31.564894,30.983892 31.125267,30.985991 30.349579,30.622047 
	C30.368921,29.468410 30.724323,28.680817 31.079725,27.893221 
	C31.079725,27.893221 31.473473,28.116743 31.687614,28.190376 
	C31.930822,28.645107 31.959888,29.026205 31.994938,29.695036 
z"/>
<path fill="#AF9787" opacity="1.000000" stroke="none" 
	d="
M27.999773,32.999981 
	C28.814428,33.071754 29.629082,33.143528 30.692327,33.127403 
	C30.799358,33.582802 30.657799,34.126102 30.275724,34.828339 
	C29.209658,35.288860 28.384106,35.590446 27.225628,35.860893 
	C26.934561,35.123573 26.976419,34.417393 27.259083,33.355568 
	C27.499886,32.999928 27.999773,32.999981 27.999773,32.999981 
z"/>
<path fill="#AF9787" opacity="1.000000" stroke="none" 
	d="
M29.007458,31.006969 
	C28.904718,31.329668 28.715870,31.589863 27.970684,31.893793 
	C27.500456,32.000034 27.000912,32.000057 27.000912,32.000057 
	C27.000912,32.000057 27.025379,31.545385 27.046608,31.319439 
	C27.067835,31.093493 27.492607,31.017082 27.963709,31.006279 
	C28.605507,30.999466 28.776203,31.003456 28.961979,31.008545 
	C28.977058,31.009644 29.007458,31.006969 29.007458,31.006969 
z"/>
<path fill="#B59982" opacity="1.000000" stroke="none" 
	d="
M27.000227,32.250015 
	C27.000912,32.000057 27.500456,32.000034 27.750542,32.000164 
	C28.000628,32.000294 28.000765,32.500145 28.000269,32.750061 
	C27.999773,32.999981 27.499886,32.999928 27.250824,32.999912 
	C27.001760,32.999897 26.999542,32.499977 27.000227,32.250015 
z"/>
<path fill="#D1A787" opacity="1.000000" stroke="none" 
	d="
M30.911148,27.651600 
	C30.724323,28.680817 30.368921,29.468410 30.020224,30.606812 
	C29.857021,30.966507 29.687115,30.975395 29.262333,30.995626 
	C29.007458,31.006969 28.977058,31.009644 28.884762,30.800400 
	C28.629063,30.324671 28.395552,30.154255 28.091930,30.079905 
	C28.086300,29.908350 28.080667,29.736795 28.080399,29.308231 
	C28.392643,28.579754 28.699524,28.108288 29.032114,27.347345 
	C29.619406,27.175241 30.180988,27.292610 30.911148,27.651600 
z"/>
<path fill="#DCD6C6" opacity="1.000000" stroke="none" 
	d="
M12.708778,45.928162 
	C12.507559,46.287849 12.022560,46.639034 11.222515,47.036163 
	C10.711903,46.702454 10.516336,46.322792 10.320770,45.943134 
	C11.022180,45.935310 11.723590,45.927483 12.708778,45.928162 
z"/>
<path fill="#B59982" opacity="1.000000" stroke="none" 
	d="
M28.034372,30.300274 
	C28.395552,30.154255 28.629063,30.324671 28.869682,30.799301 
	C28.776203,31.003456 28.605507,30.999466 28.178370,30.984165 
	C27.921928,30.972853 27.976814,30.520645 28.034372,30.300274 
z"/>
</svg>